<mxfile host="app.diagrams.net" agent="Mozilla/5.0 (Windows NT 10.0; Win64; x64) AppleWebKit/537.36 (KHTML, like Gecko) Chrome/120.0.0.0 Safari/537.36" version="25.0.3">
  <diagram name="第 1 页" id="rsfDJgXVIqg4p7-RKvN4">
    <mxGraphModel dx="1434" dy="738" grid="1" gridSize="10" guides="1" tooltips="1" connect="1" arrows="1" fold="1" page="1" pageScale="1" pageWidth="827" pageHeight="1169" math="0" shadow="0">
      <root>
        <mxCell id="0" />
        <mxCell id="1" parent="0" />
        <mxCell id="klOAZjHMZkZIQlNlTgbh-14" value="" style="edgeStyle=orthogonalEdgeStyle;rounded=0;orthogonalLoop=1;jettySize=auto;html=1;" edge="1" parent="1" source="klOAZjHMZkZIQlNlTgbh-1" target="klOAZjHMZkZIQlNlTgbh-13">
          <mxGeometry relative="1" as="geometry" />
        </mxCell>
        <mxCell id="klOAZjHMZkZIQlNlTgbh-16" value="" style="edgeStyle=orthogonalEdgeStyle;rounded=0;orthogonalLoop=1;jettySize=auto;html=1;" edge="1" parent="1" source="klOAZjHMZkZIQlNlTgbh-1" target="klOAZjHMZkZIQlNlTgbh-15">
          <mxGeometry relative="1" as="geometry" />
        </mxCell>
        <mxCell id="klOAZjHMZkZIQlNlTgbh-1" value="V+平台&lt;br&gt;&lt;div&gt;&lt;br&gt;&lt;/div&gt;" style="rounded=0;whiteSpace=wrap;html=1;" vertex="1" parent="1">
          <mxGeometry x="300" y="220" width="120" height="60" as="geometry" />
        </mxCell>
        <mxCell id="klOAZjHMZkZIQlNlTgbh-7" value="" style="edgeStyle=orthogonalEdgeStyle;rounded=0;orthogonalLoop=1;jettySize=auto;html=1;" edge="1" parent="1" source="klOAZjHMZkZIQlNlTgbh-6" target="klOAZjHMZkZIQlNlTgbh-1">
          <mxGeometry relative="1" as="geometry" />
        </mxCell>
        <mxCell id="klOAZjHMZkZIQlNlTgbh-6" value="V+登录" style="rounded=0;whiteSpace=wrap;html=1;" vertex="1" parent="1">
          <mxGeometry x="300" y="30" width="120" height="60" as="geometry" />
        </mxCell>
        <mxCell id="klOAZjHMZkZIQlNlTgbh-12" value="登录操作" style="text;html=1;align=center;verticalAlign=middle;resizable=0;points=[];autosize=1;strokeColor=none;fillColor=none;" vertex="1" parent="1">
          <mxGeometry x="350" y="140" width="70" height="30" as="geometry" />
        </mxCell>
        <mxCell id="klOAZjHMZkZIQlNlTgbh-20" style="edgeStyle=orthogonalEdgeStyle;rounded=0;orthogonalLoop=1;jettySize=auto;html=1;exitX=0.75;exitY=0;exitDx=0;exitDy=0;entryX=0.75;entryY=1;entryDx=0;entryDy=0;" edge="1" parent="1" source="klOAZjHMZkZIQlNlTgbh-13" target="klOAZjHMZkZIQlNlTgbh-1">
          <mxGeometry relative="1" as="geometry" />
        </mxCell>
        <mxCell id="klOAZjHMZkZIQlNlTgbh-13" value="&lt;div&gt;XL4-auth&lt;/div&gt;&lt;div&gt;颁发token服务&lt;/div&gt;" style="rounded=0;whiteSpace=wrap;html=1;" vertex="1" parent="1">
          <mxGeometry x="300" y="360" width="120" height="60" as="geometry" />
        </mxCell>
        <mxCell id="klOAZjHMZkZIQlNlTgbh-18" style="edgeStyle=orthogonalEdgeStyle;rounded=0;orthogonalLoop=1;jettySize=auto;html=1;exitX=0;exitY=0.75;exitDx=0;exitDy=0;entryX=1;entryY=0.75;entryDx=0;entryDy=0;" edge="1" parent="1" source="klOAZjHMZkZIQlNlTgbh-15" target="klOAZjHMZkZIQlNlTgbh-1">
          <mxGeometry relative="1" as="geometry" />
        </mxCell>
        <mxCell id="klOAZjHMZkZIQlNlTgbh-15" value="&lt;div&gt;宇通RDS&lt;/div&gt;" style="rounded=0;whiteSpace=wrap;html=1;" vertex="1" parent="1">
          <mxGeometry x="630" y="220" width="120" height="60" as="geometry" />
        </mxCell>
        <mxCell id="klOAZjHMZkZIQlNlTgbh-17" value="携带token请求诊断" style="text;html=1;align=center;verticalAlign=middle;resizable=0;points=[];autosize=1;strokeColor=none;fillColor=none;" vertex="1" parent="1">
          <mxGeometry x="460" y="220" width="120" height="30" as="geometry" />
        </mxCell>
        <mxCell id="klOAZjHMZkZIQlNlTgbh-19" value="诊断结果返回" style="text;html=1;align=center;verticalAlign=middle;resizable=0;points=[];autosize=1;strokeColor=none;fillColor=none;" vertex="1" parent="1">
          <mxGeometry x="460" y="260" width="100" height="30" as="geometry" />
        </mxCell>
        <mxCell id="klOAZjHMZkZIQlNlTgbh-21" value="返回token" style="text;html=1;align=center;verticalAlign=middle;resizable=0;points=[];autosize=1;strokeColor=none;fillColor=none;" vertex="1" parent="1">
          <mxGeometry x="380" y="310" width="80" height="30" as="geometry" />
        </mxCell>
      </root>
    </mxGraphModel>
  </diagram>
</mxfile>
